<?xml version="1.0" encoding="UTF-8" standalone="no"?>
<svg
   xmlns:dc="http://purl.org/dc/elements/1.1/"
   xmlns:cc="http://creativecommons.org/ns#"
   xmlns:rdf="http://www.w3.org/1999/02/22-rdf-syntax-ns#"
   xmlns:svg="http://www.w3.org/2000/svg"
   xmlns="http://www.w3.org/2000/svg"
   xmlns:sodipodi="http://sodipodi.sourceforge.net/DTD/sodipodi-0.dtd"
   xmlns:inkscape="http://www.inkscape.org/namespaces/inkscape"
   width="1052.3622"
   height="540"
   id="svg3500"
   version="1.1"
   inkscape:version="0.48.1 r9760"
   sodipodi:docname="overzicht.svg"
   viewBox="0 0 1060.7143 530.30304"
   preserveAspectRatio="xMidYMid meet">
  <sodipodi:namedview
     id="base"
     pagecolor="#ffffff"
     bordercolor="#666666"
     borderopacity="1.0"
     inkscape:pageopacity="0.0"
     inkscape:pageshadow="2"
     inkscape:zoom="0.51784152"
     inkscape:cx="859.58364"
     inkscape:cy="385.60369"
     inkscape:document-units="px"
     inkscape:current-layer="svg3500"
     showgrid="true"
     inkscape:window-width="1920"
     inkscape:window-height="1005"
     inkscape:window-x="0"
     inkscape:window-y="25"
     inkscape:window-maximized="1"
     showguides="true"
     inkscape:guide-bbox="true"
     inkscape:snap-global="false">
    <inkscape:grid
       snapvisiblegridlinesonly="true"
       enabled="true"
       visible="true"
       empspacing="5"
       id="grid3566"
       type="xygrid" />
  </sodipodi:namedview>
  <defs
     id="defs3502">
    <marker
       orient="auto"
       refY="0"
       refX="0"
       id="Black-Arrow"
       style="overflow:visible">
      <path
         id="path4222"
         d="M 0,0 0,-6 -12.5,0 0,6 0,0 z"
         style="fill-rule:evenodd;stroke:Black;stroke-width:1pt;marker-start:none"
         transform="matrix(-0.2,0,0,-0.2,-1.2,0)"
         inkscape:connector-curvature="0" />
    </marker>
    <marker
       orient="auto"
       refY="0"
       refX="0"
       id="Red-Arrow"
       style="overflow:visible">
      <path
         id="path4222"
         d="M 0,0 0,-6 -12.5,0 0,6 0,0 z"
         style="fill-rule:evenodd;stroke:Red;stroke-width:1pt;marker-start:none;fill:Red"
         transform="matrix(-0.2,0,0,-0.2,-1.2,0)"
         inkscape:connector-curvature="0" />
    </marker>
    <marker
       orient="auto"
       refY="0"
       refX="0"
       id="Green-Arrow"
       style="overflow:visible">
      <path
         id="path4222"
         d="M 0,0 0,-6 -12.5,0 0,6 0,0 z"
         style="fill-rule:evenodd;stroke:Green;stroke-width:1pt;marker-start:none;fill:Green"
         transform="matrix(-0.2,0,0,-0.2,-1.2,0)"
         inkscape:connector-curvature="0" />
    </marker>
    <marker
       orient="auto"
       refY="0"
       refX="0"
       id="Black-Pump-Marker"
       style="overflow:visible">
      <path
         id="Black-Pump.cross"
         d="m -11,0 22,0 m -11,-11 0,22"
         style="stroke:#000000;stroke-width:1.5pt;" />
      <circle
         id="Black-Pump.circle"
         r="11"
         cy="0"
         cx="0"
         style="stroke:#000000;stroke-width:1.5pt;fill:none" />
    </marker>
    <marker
     orient="auto"
     refY="0"
     refX="0"
     id="Green-Pump-Marker"
     style="overflow:visible">
      <path
       id="Green-Pump.cross"
       d="m -11,0 22,0 m -11,-11 0,22"
       style="stroke:Green;stroke-width:1.5pt;" />
      <circle
         id="Green-Pump.circle"
         r="11"
         cy="0"
         cx="0"
         style="stroke:Green;stroke-width:1.5pt;fill:none" />
    </marker>
    <marker
     orient="auto"
     refY="0"
     refX="0"
     id="RWZI-Marker"
     style="overflow:visible">
      <path
       id="RWZI-Marker.cross"
       d="m -11,0 22,0 m -11,-11 0,22"
       style="stroke:Purple;stroke-width:3pt;stroke-opacity:0.8" />
      <circle
         id="RWZI-Marker.circle"
         r="11"
         cy="0"
         cx="0"
         style="stroke:Purple;stroke-width:3pt;fill:none;stroke-opacity:0.8" />
    </marker>
  </defs>
  <metadata
     id="metadata3505">
    <rdf:RDF>
      <cc:Work
         rdf:about="">
        <dc:format>image/svg+xml</dc:format>
        <dc:type
           rdf:resource="http://purl.org/dc/dcmitype/StillImage" />
        <dc:title />
      </cc:Work>
    </rdf:RDF>
  </metadata>
  <rect
     style="fill:#eaf7a6;fill-opacity:0.51764706;stroke:none"
     id="rect3895"
     width="734.9668"
     height="465.20691"
     x="2.7290323"
     y="75.104553" />
  <path
     style="fill:#82fae4;fill-opacity:0.51764706;stroke:none"
     d="m 2.7334224,245.77333 27.5265216,39.91346 129.374636,46.10692 52.98854,24.77387 70.8808,42.6661 80.51507,37.84897 59.87017,6.19346 106.66527,44.04243 204.3844,-77.07425 0,36.47264 -0.68816,4.12898 -40.60161,16.5159 -25.46203,23.39755 -139.00893,41.97794 -70.88079,4.12898 -70.19262,-24.08571 -15.82775,-13.76325 -27.52651,-3.44082 -50.2359,45.41875 -62.62283,-1.37632 42.6661,-55.05304 -79.13875,-13.07509 -47.48324,-17.20408 -35.09631,-23.39754 -12.38694,-5.5053 -43.354265,-33.71999 -52.9885426,-66.06365 -1.37633,-79.82691 z"
     id="path3111"
     inkscape:connector-curvature="0" />
  <rect
     style="fill:#c2c2c2;stroke:#000000;stroke-width:1.03989899"
     height="74.960106"
     width="734.65466"
     y="-4.578793"
     x="2.4129617"
     id="rectTitel" />
  <text
     style="font-size:44px;font-family:Arial"
     y="44.381142"
     x="26.956879"
     id="Titel">Hoofdpersleidingen Hoekse Waard</text>
  <g
     transform="matrix(0.97893,0,0,0.986108,-126.54298,-128.203)"
     id="1">
    <text
       id="2"
       xml:space="preserve"
       x="567.66254"
       y="497.30316"
       style="font-size:14.99768829px;font-style:normal;font-weight:normal;text-align:start;text-anchor:start;fill:#000000;font-family:Times New Roman" />
  </g>
  <g
     transform="matrix(0.97893,0,0,0.986108,-75.076972,-145.181)"
     id="1-8">
    <text
       id="2-4"
       xml:space="preserve"
       x="567.66254"
       y="497.30316"
       style="font-size:14.99768829px;font-style:normal;font-weight:normal;text-align:start;text-anchor:start;fill:#000000;font-family:Times New Roman" />
  </g>
  <path
     id="path4074"
     d="m 364.14997,410.4743 0,0 z"
     style="fill:none;stroke:#6e6e6e;stroke-width:4.91256332;stroke-linecap:butt;stroke-linejoin:miter;stroke-miterlimit:4;stroke-opacity:1;stroke-dasharray:none"
     inkscape:connector-curvature="0" />
  <path
     id="path4082"
     d="m 243.72038,358.27311 0,0 z"
     style="fill:none;stroke:#6e6e6e;stroke-width:4.91256332;stroke-linecap:butt;stroke-linejoin:miter;stroke-miterlimit:4;stroke-opacity:1;stroke-dasharray:none"
     inkscape:connector-curvature="0" />
  <text
     style="font-size:20px;font-family:Arial"
     y="323.93915"
     x="258.89902"
     id="naarnumansdorp">Numansdorp</text>
  <text
     style="font-size:20px;font-family:Arial"
     y="164.71722"
     x="295.29037"
     id="naaroudbeijerland">Oud-Beijerland</text>
  <text
     style="font-size:20px;font-family:Arial"
     y="415.66858"
     x="544.13257"
     id="naarstrijen">Strijen</text>
  <path
     style="fill:none;stroke:#000000;stroke-width:0.8;stroke-opacity:1;marker-start:url(#Black-Pump-Marker)"
     id="rgnieuwendijk:pump.indicator"
     d="m 165,307 5,5"/>
  <path
     style="fill:none;stroke:#000000;stroke-width:0.8;stroke-opacity:1;marker-start:url(#Black-Pump-Marker)"
     id="rgzuidbeijerland:pump.indicator"
     d="m 240,337 5,5"/>
  <path
     style="fill:none;stroke:#000000;stroke-width:0.8;stroke-opacity:1;marker-start:url(#Black-Pump-Marker)"
     id="rgnumansdorp:pump.indicator"
     d="m 375,409 5,5"/>
  <path
     style="fill:none;stroke:#000000;stroke-width:0.8;stroke-opacity:1;marker-start:url(#Black-Pump-Marker)"
     id="rgklaaswaal:pump.indicator"
     d="m 381,298 5,5"/>
  <path
     style="fill:none;stroke:#000000;stroke-width:0.8;stroke-opacity:1;marker-start:url(#Black-Pump-Marker)"
     id="rgnumansdorpnoord:pump.indicator"
     d="m 375,376 5,5"/>
  <path
     sodipodi:nodetypes="ccc"
     id="KlaaswaalNumansdorpnoord:flow.indicator"
     d="m 365.99825,374.508 -10.46163,0 0,34.93442"
     style="fill:none;stroke:#000000;stroke-width:3pt;stroke-linecap:butt;stroke-linejoin:miter;stroke-miterlimit:4;stroke-opacity:1;stroke-dasharray:none"
     inkscape:connector-curvature="0" />
  <path
     id="unknown2:flow.indicator"
     d="m 355.7226,409.47521 -8,0"
     style="fill:none;stroke:#000000;stroke-width:3pt;stroke-linecap:butt;stroke-linejoin:miter;stroke-miterlimit:4;stroke-opacity:1;stroke-dasharray:none;marker-end:url(#Black-Arrow)"
     inkscape:connector-curvature="0" />
  <path
     id="effluentNumansdorp"
     d="m 334.42812,417.12406 -8.903,17.32986"
     style="fill:none;stroke:#000000;stroke-width:4pt;stroke-linecap:butt;stroke-linejoin:miter;stroke-miterlimit:4;stroke-opacity:1;stroke-dasharray:none"
     inkscape:connector-curvature="0" />
  <path
     id="Klaaswaal:flow.indicator"
     d="m 375.50383,367.47521 5,-31 0,-31"
     style="fill:none;stroke:#000000;stroke-width:3pt;stroke-linecap:butt;stroke-linejoin:miter;stroke-miterlimit:4;stroke-opacity:1;stroke-dasharray:none"
     inkscape:connector-curvature="0" />
  <path
     id="NieuwendijkZuidbeijerland:flow.indicator"
     d="m 239.54123,363.64678 84.17754,41.26642"
     style="fill:none;stroke:#000000;stroke-width:3pt;stroke-linecap:butt;stroke-linejoin:miter;stroke-miterlimit:4;stroke-opacity:1;stroke-dasharray:none;marker-end:url(#Black-Arrow)"
     inkscape:connector-curvature="0" />
  <path
     inkscape:label="#leidingZuidbeijerland"
     id="Zuidbeijerland:flow.indicator"
     d="m 240.50383,364.47521 0,-20"
     style="fill:none;stroke:#000000;stroke-width:3pt;stroke-linecap:butt;stroke-linejoin:miter;stroke-miterlimit:4;stroke-opacity:1;stroke-dasharray:none"
     inkscape:connector-curvature="0" />
  <path
     id="Nieuwendijk:flow.indicator"
     d="m 240.51233,364.48371 -75.017,-38.64286 0,-9.66071"
     style="fill:none;stroke:#000000;stroke-width:3pt;stroke-linecap:butt;stroke-linejoin:miter;stroke-miterlimit:4;stroke-opacity:1;stroke-dasharray:none"
     inkscape:connector-curvature="0" />
  <path
     id="path7621"
     d="m 449.56549,266.69209 c 0,5.2191 1.49117,13.42055 1.49117,13.42055 l 2.23676,8.20144 -4.47351,21.62198 12.67495,16.40289 26.84109,11.18378 20.13081,20.13081 1.49117,9.69262 -11.92937,-1.49117 -14.91171,8.94702 12.67495,35.78811 22.36757,14.16613 -11.18378,19.38523 29.07784,26.0955 0,13.13615"
     style="fill:none;stroke:#434406;stroke-width:2;stroke-linecap:butt;stroke-linejoin:miter;stroke-miterlimit:4;stroke-opacity:0.51764706;stroke-dasharray:none"
     sodipodi:nodetypes="ccccccccccccccc"
     inkscape:connector-curvature="0" />
  <path
     id="path7625"
     d="m 325.05269,255.50831 -14.16613,-9.69261 -16.40288,-6.71028 -2.23676,-10.43819 -23.85874,0.74558 5.96468,-42.49838 7.45586,0 5.2191,-39.51604 -13.42054,-10.4382 0.74558,-14.16613"
     style="fill:none;stroke:#434406;stroke-width:2;stroke-linecap:butt;stroke-linejoin:miter;stroke-miterlimit:4;stroke-opacity:0.51764706;stroke-dasharray:none"
     inkscape:connector-curvature="0" />
  <path
     style="fill:none;stroke:#000000;stroke-width:0.8;stroke-opacity:1;marker-start:url(#Black-Pump-Marker)"
     id="rgwestmaas:pump.indicator"
     d="m 428,223 5,5"/>
  <path
     style="fill:none;stroke:#000000;stroke-width:0.8;stroke-opacity:1;marker-start:url(#Black-Pump-Marker)"
     id="rgMijnsheerenland:pump.indicator"
     d="m 460,202 5,5"/>
  <path
     style="fill:none;stroke:#000000;stroke-width:0.8;stroke-opacity:1;marker-start:url(#Black-Pump-Marker)"
     id="rgheienoord:pump.indicator"
     d="m 442,106 5,5"/>
  <path
     style="fill:none;stroke:#000000;stroke-width:0.8;stroke-opacity:1;marker-start:url(#Black-Pump-Marker)"
     id="rgnieuweweg:pump.indicator"
     d="m 439,134 5,5"/>
  <path
     style="fill:none;stroke:#000000;stroke-width:0.8;stroke-opacity:1;marker-start:url(#Black-Pump-Marker)"
     id="rgirenestraat:pump.indicator"
     d="m 325,140 5,5"/>
  <path
     style="fill:none;stroke:#000000;stroke-width:0.8;stroke-opacity:1;marker-start:url(#Black-Pump-Marker)"
     id="rgdegorzen:pump.indicator"
     d="m 344,121 5,5"/>
  <path
     id="Westmaas:flow.indicator"
     d="m 432.14883,215.77658 10.11881,-24.37949"
     style="fill:none;stroke:#000000;stroke-width:3pt;stroke-linecap:butt;stroke-linejoin:miter;stroke-miterlimit:4;stroke-opacity:1;stroke-dasharray:none"
     inkscape:connector-curvature="0" />
  <path
     inkscape:label="#path7750"
     id="Mijnsheerenland:flow.indicator"
     d="m 440.84191,192.90158 11.85903,5.07014"
     style="fill:none;stroke:#000000;stroke-width:3pt;stroke-linecap:butt;stroke-linejoin:miter;stroke-miterlimit:4;stroke-opacity:1;stroke-dasharray:none"
     inkscape:connector-curvature="0" />
  <path
     id="Heienoord:flow.indicator"
     d="m 439.16544,125.59846 1.78767,-11.85307"
     style="fill:none;stroke:#000000;stroke-width:3pt;stroke-linecap:butt;stroke-linejoin:miter;stroke-miterlimit:4;stroke-opacity:1;stroke-dasharray:none"
     inkscape:connector-curvature="0" />
  <path
     id="Nieuweweg:flow.indicator"
     d="m 430.45994,133.27894 -46.98317,-8.66759 -9.96613,-9.95169"
     style="fill:none;stroke:#000000;stroke-width:3pt;stroke-linecap:butt;stroke-linejoin:miter;stroke-miterlimit:4;stroke-opacity:1;stroke-dasharray:none;marker-end:url(#Black-Arrow)"
     inkscape:connector-curvature="0" />
  <path
     id="Degorzen:flow.indicator"
     d="m 350.21074,115.56885 4.84374,-4.56069"
     style="fill:none;stroke:#000000;stroke-width:3pt;stroke-linecap:butt;stroke-linejoin:miter;stroke-miterlimit:4;stroke-opacity:1;stroke-dasharray:none;marker-end:url(#Black-Arrow)"
     inkscape:connector-curvature="0" />
  <path
     id="Irenestraat:flow.indicator"
     d="m 330.59399,133.93523 7.65023,-6.95123"
     style="fill:none;stroke:#000000;stroke-width:3pt;stroke-linecap:butt;stroke-linejoin:miter;stroke-miterlimit:4;stroke-opacity:1;stroke-dasharray:none"
     inkscape:connector-curvature="0" />
  <path
     id="path7795"
     d="m 357.27043,98.813282 -5.81381,-5.8604"
     style="fill:none;stroke:#000000;stroke-width:3.05767941;stroke-linecap:butt;stroke-linejoin:miter;stroke-miterlimit:4;stroke-opacity:1;stroke-dasharray:none"
     inkscape:connector-curvature="0" />
  <path
     style="fill:none;stroke:#000000;stroke-width:0.8;stroke-opacity:1;marker-start:url(#Black-Pump-Marker)"
     id="rgstrijensas:pump.indicator"
     d="m 625,442 5,5"/>
  <path
     style="fill:none;stroke:#000000;stroke-width:0.8;stroke-opacity:1;marker-start:url(#Black-Pump-Marker)"
     id="rgzweedsestraat:pump.indicator"
     d="m 637,337 5,5"/>
  <path
     style="fill:none;stroke:#000000;stroke-width:0.8;stroke-opacity:1;marker-start:url(#Black-Pump-Marker)"
     id="rgschenkel:pump.indicator"
     d="m 674,400 5,5"/>
  <path
     id="Schenkel:flow.indicator"
     d="m 673.90137,390.80827 0,-20 -6.71328,-6.36059"
     style="fill:none;stroke:#000000;stroke-width:3pt;stroke-linecap:butt;stroke-linejoin:miter;stroke-miterlimit:4;stroke-opacity:1;stroke-dasharray:none"
     inkscape:connector-curvature="0" />
  <path
     id="Zweedsestraat:flow.indicator"
     d="m 631.60181,331.55361 c -2.39553,-2.04488 -11.88287,-8.97678 -11.88287,-8.97678 l -26.2097,25.56833"
     style="fill:none;stroke:#000000;stroke-width:3pt;stroke-linecap:butt;stroke-linejoin:miter;stroke-miterlimit:4;stroke-opacity:1;stroke-dasharray:none;marker-end:url(#Black-Arrow)"
     inkscape:connector-curvature="0" />
  <path
     sodipodi:nodetypes="cccccccccccccccccccccc"
     id="path7968"
     d="m 276.14076,391.12512 45.74458,-135.09241 20.73374,-17.06318 23.03751,10.38628 52.21833,-17.06316 10.75083,31.15882 23.0375,2.22565 2.30375,-17.06317 13.05458,3.70937 13.8225,-5.19313 2.30375,-12.6119 22.26959,0.74187 11.51874,10.38627 8.44708,9.64439 14.59041,-0.74186 22.26961,22.99819 41.46749,2.22561 1.53583,25.9657 72.18416,8.90252 0,11.12815 -14.67926,20.9337 36.57061,44.19034"
     style="fill:none;stroke:#434406;stroke-width:2.02467537;stroke-linecap:butt;stroke-linejoin:miter;stroke-miterlimit:4;stroke-opacity:0.51764706;stroke-dasharray:none"
     inkscape:connector-curvature="0" />
  <path
     id="path7978"
     d="m 275.14264,120.92019 c -2.26196,3.83584 -21.11155,18.41199 -21.11155,18.41199 l -24.12747,-6.90449 -32.4213,6.13732 -13.5717,14.57616 -37.69918,5.37017 -17.34162,24.54931 -58.810714,-8.43882 -44.485033,65.20911 -20.3575607,-12.27465"
     style="fill:none;stroke:#434406;stroke-width:2.04013133;stroke-linecap:butt;stroke-linejoin:miter;stroke-miterlimit:4;stroke-opacity:0.51764706;stroke-dasharray:none"
     inkscape:connector-curvature="0" />
  <path
     id="path7982"
     d="m 698.64762,427.62557 8.14492,-75.93671 -11.92937,-43.24397 5.96469,-50.69982 -14.91172,-64.12037 -84.99676,-26.84108 -28.33226,-61.13803 -41.75279,5.96469 L 463.73162,87.751542 392.1554,101.17208 362.33197,87.751542 344.43791,104.15442 298.2116,98.189742 274.35286,122.04848"
     style="fill:none;stroke:#434406;stroke-width:2;stroke-linecap:butt;stroke-linejoin:miter;stroke-miterlimit:4;stroke-opacity:0.51764706;stroke-dasharray:none"
     sodipodi:nodetypes="cccccccccccccc"
     inkscape:connector-curvature="0" />
  <path
     id="path7984"
     d="m 344.45374,239.76231 11.92193,-26.17518 2.98047,-46.19145 34.27553,-3.07944 1.49024,-63.12833"
     style="fill:none;stroke:#434406;stroke-width:2.03165913;stroke-linecap:butt;stroke-linejoin:miter;stroke-miterlimit:4;stroke-opacity:0.51764706;stroke-dasharray:none"
     inkscape:connector-curvature="0" />
  <path
     style="fill:none;stroke:#000000;stroke-width:0.8;stroke-opacity:1;marker-start:url(#Black-Pump-Marker)"
     id="rgblaaksedijk:pump.indicator"
     d="m 506,160 5,5"/>
  <path
     style="fill:none;stroke:#000000;stroke-width:0.8;stroke-opacity:1;marker-start:url(#Black-Pump-Marker)"
     id="rgboezemkade:pump.indicator"
     d="m 571,230 5,5"/>
  <path
     style="fill:none;stroke:#000000;stroke-width:0.8;stroke-opacity:1;marker-start:url(#Black-Pump-Marker)"
     id="rgmijlpolder:pump.indicator"
     d="m 683,222 5,5"/>
  <path
     style="fill:none;stroke:#000000;stroke-width:0.8;stroke-opacity:1;marker-start:url(#Black-Pump-Marker)"
     id="rgnassaulaan:pump.indicator"
     d="m 603,182 5,5"/>
  <path
     style="fill:none;stroke:#000000;stroke-width:0.8;stroke-opacity:1;marker-start:url(#Black-Pump-Marker)"
     id="rgsimonsdijkje:pump.indicator"
     d="m 629,182 5,5"/>
  <path
     id="Blaaksedijk:flow.indicator"
     d="m 515.48873,159.63946 43.60846,0 0.72081,14.19362 32.07565,24.83881"
     style="fill:none;stroke:#000000;stroke-width:3pt;stroke-linecap:butt;stroke-linejoin:miter;stroke-miterlimit:4;stroke-opacity:1;stroke-dasharray:none"
     inkscape:connector-curvature="0" />
  <path
     id="Boezemkade:flow.indicator"
     d="m 576.51681,223.61917 14.41488,-22.15827 8.10837,-12.71376"
     style="fill:none;stroke:#000000;stroke-width:3pt;stroke-linecap:butt;stroke-linejoin:miter;stroke-miterlimit:4;stroke-opacity:1;stroke-dasharray:none"
     inkscape:connector-curvature="0" />
  <path
     id="Mijlpolder:flow.indicator"
     d="m 635.48892,186.20844 40.55521,31.28199"
     style="fill:none;stroke:#000000;stroke-width:3pt;stroke-linecap:butt;stroke-linejoin:miter;stroke-miterlimit:4;stroke-opacity:1;stroke-dasharray:none"
     inkscape:connector-curvature="0" />
  <path
     id="Nassaulaan:flow.indicator"
     d="m 611.48699,181.69533 8.36201,0"
     style="fill:none;stroke:#000000;stroke-width:3pt;stroke-linecap:butt;stroke-linejoin:miter;stroke-miterlimit:4;stroke-opacity:1;stroke-dasharray:none"
     inkscape:connector-curvature="0" />
  <path
     id="Simonsdijkje:flow.indicator"
     d="m 629.06524,173.81554 0,-19.58165"
     style="fill:none;stroke:#000000;stroke-width:3pt;stroke-linecap:butt;stroke-linejoin:miter;stroke-miterlimit:4;stroke-opacity:1;stroke-dasharray:none;marker-end:url(#Black-Arrow)"
     inkscape:connector-curvature="0" />
  <path
     id="unknown-1:flow.indicator"
     d="m 199.06966,147.41934 21.20729,21.02089"
     style="fill:none;stroke:#000000;stroke-width:3pt;stroke-linecap:butt;stroke-linejoin:miter;stroke-miterlimit:4;stroke-opacity:1;stroke-dasharray:none"
     inkscape:connector-curvature="0" />
  <path
     style="fill:none;stroke:#000000;stroke-width:0.8;stroke-opacity:1;marker-start:url(#Black-Pump-Marker)"
     id="rgnieuwbeijerland:pump.indicator"
     d="m 227,175 5,5"/>
  <path
     style="fill:none;stroke:#000000;stroke-width:0.8;stroke-opacity:1;marker-start:url(#Black-Pump-Marker)"
     id="rgpiershil:pump.indicator"
     d="m 155,234 5,5"/>
  <path
     id="Nieuwbeijerland:flow.indicator"
     d="m 225.7034,182.53133 0,18.64226"
     style="fill:none;stroke:#000000;stroke-width:3pt;stroke-linecap:butt;stroke-linejoin:miter;stroke-miterlimit:4;stroke-opacity:1;stroke-dasharray:none;marker-end:url(#Black-Arrow)"
     inkscape:connector-curvature="0" />
  <path
     inkscape:label="#leidingPiershil"
     id="Piershil:flow.indicator"
     d="M 163.30723,230.82685 211.9884,217.47891"
     style="fill:none;stroke:#000000;stroke-width:3pt;stroke-linecap:butt;stroke-linejoin:miter;stroke-miterlimit:4;stroke-opacity:1;stroke-dasharray:none;marker-end:url(#Black-Arrow)"
     inkscape:connector-curvature="0" />
  <text
     style="font-size:20px;font-family:Arial"
     y="203.27887"
     x="142.2081"
     id="naarpiershil">Piershil</text>
  <path
     style="fill:none;stroke:#000000;stroke-width:0.6;stroke-opacity:1;marker-start:url(#Black-Pump-Marker)"
     id="Legenda-Gemaal"
     d="m 25,368 5,5"/>
  <path
     style="fill:none;stroke:#000000;stroke-width:0.6;stroke-opacity:1;marker-start:url(#Green-Pump-Marker)"
     id="Legenda-Gemaal_in_bedrijf"
     d="m 25,396 5,5"/>
  <path
     style="fill:none;stroke:#000000;stroke-width:0.6;stroke-opacity:1;marker-start:url(#RWZI-Marker)"
     id="Legenda-RWZI"
     d="m 25,424 5,5"/>
  <text
     style="font-size:20px;font-family:Arial"
     y="252.68695"
     x="605.76117"
     id="naarbinnenmaas">Binnenmaas</text>
  <path
     sodipodi:nodetypes="ccccc"
     id="Strijensas:flow.indicator"
     d="m 625.4958,435.04149 0,-33.76687 -30.28282,0 -10.67183,-17.61078 0,-9.78103"
     style="fill:none;stroke:#000000;stroke-width:3pt;stroke-linecap:butt;stroke-linejoin:miter;stroke-miterlimit:4;stroke-opacity:1;stroke-dasharray:none;marker-end:url(#Black-Arrow)"
     inkscape:connector-curvature="0" />
  <text
     inkscape:label="#Q2"
     transform="scale(0.94137069,1.0622808)"
     style="font-size:14.37125874px;font-family:Arial"
     y="269.186"
     x="395.9946"
     id="rgklaaswaal:pomp.inzet">-</text>
  <text
     inkscape:label="#rgnumansdorpnoord"
     transform="scale(0.94137069,1.0622808)"
     style="font-size:14.37125874px;font-family:Arial"
     y="358.31137"
     x="409.4343"
     id="rgnumansdorpnoord:pomp.inzet">-</text>
  <text
     inkscape:label="#rgnumansdorp"
     transform="scale(0.94137069,1.0622808)"
     style="font-size:14.37125874px;font-family:Arial"
     y="388.54425"
     x="409.4343"
     id="rgnumansdorp:pomp.inzet">-</text>
  <text
     inkscape:label="#rgzuidbeijerland"
     transform="scale(0.94137069,1.0622808)"
     style="font-size:14.37125874px;font-family:Arial"
     y="320.74921"
     x="266.76694"
     id="rgzuidbeijerland:pomp.inzet">-</text>
  <text
     inkscape:label="#rgnieuwendijk"
     transform="scale(0.94137069,1.0622808)"
     style="font-size:14.37125874px;font-family:Arial"
     y="293.26474"
     x="187.16254"
     id="rgnieuwendijk:pomp.inzet">-</text>
  <path
     id="Numansdorp:flow.indicator"
     d="m 355.22662,409.52201 10.35134,-0.22389"
     style="fill:none;stroke:#000000;stroke-width:3pt;stroke-linecap:butt;stroke-linejoin:miter;stroke-miterlimit:4;stroke-opacity:1;stroke-dasharray:none"
     inkscape:connector-curvature="0" />
  <path
     id="path7805"
     d="m 61.488165,326.33895 30.56902,0 c 0,0 69.712245,24.23153 71.203415,24.97712 1.49117,0.74558 61.13803,29.82342 61.13803,29.82342 l 0,11.55658 -42.49839,14.53892 -39.51604,-5.2191 -84.623955,-60.39244 -3.35514,-11.92937 7.08306,-3.35513 z"
     style="fill:#dcf8b9;fill-opacity:0.51764706;stroke:#b3b3b3;stroke-width:1px;stroke-linecap:butt;stroke-linejoin:miter;stroke-opacity:1"
     inkscape:connector-curvature="0" />
  <text
     inkscape:label="#rgpiershil"
     transform="scale(0.94137069,1.0622808)"
     style="font-size:14.37125874px;font-family:Arial"
     y="207.87463"
     x="159.72523"
     id="rgpiershil:pomp.inzet">-</text>
  <text
     inkscape:label="#rgnieuwbeijerland"
     transform="scale(0.94137069,1.0622808)"
     style="font-size:14.37125874px;font-family:Arial"
     y="153.45807"
     x="235.02054"
     id="rgnieuwbeijerland:pomp.inzet">-</text>
  <text
     inkscape:label="#rgirenestraat"
     transform="scale(0.94137069,1.0622808)"
     style="font-size:14.37125874px;font-family:Arial"
     y="137.26265"
     x="354.90836"
     id="rgirenestraat:pomp.inzet">-</text>
  <text
     inkscape:label="#rgdegorzen"
     transform="scale(0.94137069,1.0622808)"
     style="font-size:14.37125874px;font-family:Arial"
     y="116.53252"
     x="329.32257"
     id="rgdegorzen:pomp.inzet">-</text>
  <text
     inkscape:label="#rgheienoord"
     transform="scale(0.94137069,1.0622808)"
     style="font-size:14.37125874px;font-family:Arial"
     y="89.972038"
     x="471.50635"
     id="rgheienoord:pomp.inzet">-</text>
  <text
     inkscape:label="#rgnieuweweg"
     transform="scale(0.94137069,1.0622808)"
     style="font-size:14.37125874px;font-family:Arial"
     y="131.4323"
     x="476.6235"
     id="rgnieuweweg:pomp.inzet">-</text>
  <text
     inkscape:label="#rgMijnsheerenland"
     transform="scale(0.94137069,1.0622808)"
     style="font-size:14.37125874px;font-family:Arial"
     y="194.59441"
     x="500.38171"
     id="rgMijnsheerenland:pomp.inzet">-</text>
  <text
     inkscape:label="#rgwestmaas"
     transform="scale(0.94137069,1.0622808)"
     style="font-size:14.37125874px;font-family:Arial"
     y="213.38109"
     x="463.83069"
     id="rgwestmaas:pomp.inzet">-</text>
  <path
     id="WestmaasMijnsheerenland:flow.indicator"
     d="m 442.12551,192.44069 9.63429,-40.25754 -6.53755,-12.04286"
     style="fill:none;stroke:#000000;stroke-width:3pt;stroke-linecap:butt;stroke-linejoin:miter;stroke-miterlimit:4;stroke-opacity:1;stroke-dasharray:none"
     inkscape:connector-curvature="0" />
  <text
     inkscape:label="#rgblaaksedijk"
     transform="scale(0.94137069,1.0622808)"
     style="font-size:14.37125874px;font-family:Arial"
     y="139.53001"
     x="531.08466"
     id="rgblaaksedijk:pomp.inzet">-</text>
  <text
     inkscape:label="#rgmijlpolder"
     transform="scale(0.94137069,1.0622808)"
     style="font-size:14.37125874px;font-family:Arial"
     y="214.35281"
     x="736.50195"
     id="rgmijlpolder:pomp.inzet">-</text>
  <text
     inkscape:label="#rgsimonsdijkje"
     transform="scale(0.94137069,1.0622808)"
     style="font-size:14.37125874px;font-family:Arial"
     y="174.18819"
     x="678.02014"
     id="rgsimonsdijkje:pomp.inzet">-</text>
  <text
     inkscape:label="#rgnassaulaan"
     transform="scale(0.94137069,1.0622808)"
     style="font-size:14.37125874px;font-family:Arial"
     y="160.58406"
     x="627.57959"
     id="rgnassaulaan:pomp.inzet">-</text>
  <path
     style="fill:none;stroke:#000000;stroke-width:0.8;stroke-opacity:1;marker-start:url(#Black-Pump-Marker)"
     id="rghoeksedijk:pump.indicator"
     d="m 595,230 5,5"/>
  <text
     inkscape:label="#rghoeksedijk"
     transform="scale(0.94137069,1.0622808)"
     style="font-size:14.37125874px;font-family:Arial"
     y="220.83098"
     x="643.29657"
     id="rghoeksedijk:pomp.inzet">-</text>
  <path
     id="Hoeksedijk:flow.indicator"
     d="m 591.32807,222.24697 -6.96809,-8.68851"
     style="fill:none;stroke:#000000;stroke-width:3pt;stroke-linecap:butt;stroke-linejoin:miter;stroke-miterlimit:4;stroke-opacity:1;stroke-dasharray:none"
     inkscape:connector-curvature="0" />
  <text
     inkscape:label="#rgstrijensas"
     transform="scale(0.94137069,1.0622808)"
     style="font-size:14.37125874px;font-family:Arial"
     y="415.82376"
     x="673.63397"
     id="rgstrijensas:pomp.inzet">-</text>
  <text
     inkscape:label="#rgschenkel"
     transform="scale(0.94137069,1.0622808)"
     style="font-size:14.37125874px;font-family:Arial"
     y="382.46121"
     x="726.63318"
     id="rgschenkel:pomp.inzet">-</text>
  <text
     inkscape:label="#rgzweedsestraat"
     transform="scale(0.94137069,1.0622808)"
     style="font-size:14.37125874px;font-family:Arial"
     y="320.59473"
     x="687.88898"
     id="rgzweedsestraat:pomp.inzet">-</text>
  <path
     style="fill:none;stroke:#000000;stroke-width:0.8;stroke-opacity:1;marker-start:url(#Black-Pump-Marker)"
     id="rgmookhoek:pump.indicator"
     d="m 661,358 5,5"/>
  <path
     id="Mookhoek:flow.indicator"
     d="m 644.48256,342.84143 10.59228,9.56003"
     style="fill:none;stroke:#000000;stroke-width:3pt;stroke-linecap:butt;stroke-linejoin:miter;stroke-miterlimit:4;stroke-opacity:1;stroke-dasharray:none"
     inkscape:connector-curvature="0" />
  <text
     inkscape:label="#rgmookhoek"
     transform="scale(0.94137069,1.0622808)"
     style="font-size:14.37125874px;font-family:Arial"
     y="341.32486"
     x="714.20575"
     id="rgmookhoek:pomp.inzet">-</text>
  <text
     inkscape:label="#rgboezemkade"
     transform="scale(0.94137069,1.0622808)"
     style="font-size:14.37125874px;font-family:Arial"
     y="236.37857"
     x="599.06976"
     id="rgboezemkade:pomp.inzet">-</text>
  <rect
     id="rect19-8"
     style="fill:#f3faf3;fill-opacity:0.51764706;stroke:#000000;stroke-width:2.02008343;stroke-opacity:1"
     height="209.28062"
     width="146.24167"
     y="326.08426"
     x="5.646368" />
  <text
     transform="scale(0.95439382,1.0477855)"
     style="font-size:19.71341515px;font-family:Arial"
     y="332.61902"
     x="45.474907"
     id="4ATS-7">Legenda</text>
  <text
     transform="scale(0.99163841,1.0084321)"
     style="font-size:13.14231968px;font-family:Arial"
     y="371.16519"
     x="48.993378"
     id="4ATS">Gemaal</text>
  <path
     id="path3772-1"
     d="m 17.725123,450.18677 22.477881,0"
     style="fill:none;stroke:#000000;stroke-width:2.59601831;stroke-linecap:butt;stroke-linejoin:miter;stroke-miterlimit:4;stroke-opacity:1;stroke-dasharray:none"
     inkscape:connector-curvature="0" />
  <path
     id="path3772-4"
     d="m 17.162703,476.4158 22.477881,0"
     style="fill:#00e600;stroke:Green;stroke-width:2.59601831;stroke-linecap:butt;stroke-linejoin:miter;stroke-miterlimit:4;stroke-opacity:1;stroke-dasharray:none"
     inkscape:connector-curvature="0" />
  <text
     transform="scale(1.031439,0.96951928)"
     style="font-size:13.14229012px;font-family:Arial"
     y="467.62665"
     x="47.410534"
     id="4ATS-1-0">Geen afvoer</text>
  <text
     transform="scale(1.031439,0.96951928)"
     style="font-size:13.14229012px;font-family:Arial"
     y="493.97003"
     x="47.561321"
     id="4ATS-1-4">Afvoer</text>
  <text
     transform="scale(0.99163841,1.0084321)"
     style="font-size:13.14231968px;font-family:Arial"
     y="424.35376"
     x="48.928558"
     id="4ATS-5">RWZI</text>
  <text
     transform="scale(0.87112513,1.1479407)"
     style="font-size:15.81733608px;font-family:Arial"
     y="447.30762"
     x="18.232092"
     id="Q2-7">
    <tspan
       id="tspan3103"
       style="font-size:13.55500126px">67</tspan>
  </text>
  <text
     transform="scale(0.94646223,1.0565662)"
     style="font-size:15.48701382px;font-family:Arial"
     y="479.89679"
     x="50.749039"
     id="4ATS-1-4-0">
    <tspan
       id="tspan3099"
       style="font-size:13.14239597px">Gemeten afvoer</tspan>
  </text>
  <text
     transform="scale(0.94646223,1.0565662)"
     style="font-size:15.48701382px;font-family:Arial"
     y="495.26169"
     x="51.395859"
     id="4ATS-1-4-0-9">
    <tspan
       id="tspan3101"
       style="font-size:13.14239597px">in m3/h</tspan>
  </text>
  <text
     transform="scale(0.99163841,1.0084321)"
     style="font-size:13.14231968px;font-family:Arial"
     y="398.02112"
     x="49.232208"
     id="4ATS-1">Gemaal in bedrijf</text>
  <a xlink:href="/stroomschema/oudbeijerland">
    <path
   id="gebiedOudbeijerland"
   style="fill:#000000;fill-opacity:0"
   d="m 295.69858,104.05581 -23.4145,23.89728 -0.72416,14.72458 13.03487,10.62101 -5.06912,39.10463 -7.24159,0 -6.15536,42.00126 23.77658,-0.48277 2.17248,10.13824 16.29359,6.75882 12.79349,9.17269 19.06954,-15.69013 13.63835,-25.2249 2.65525,-45.98414 34.27689,-3.37941 1.20694,-62.76052 -2.65526,0.96555 -29.69055,-13.759037 -18.10399,16.172897 z"
   sodipodi:nodetypes="cccccccccccccccccccc"
   inkscape:connector-curvature="0"
   transform="matrix(1.0079368,0,0,1.0079368,0,-6.9914253)" />
  </a>
  <a xlink:href="/stroomschema/piershil">
    <path
   id="gebiedPiershil"
   d="m 325.05269,255.50831 -14.16613,-9.69262 -16.40288,-6.71028 -2.23676,-10.43819 -23.85874,0.74558 5.96468,-42.49838 7.45586,0 5.2191,-39.51603 -13.42054,-10.4382 1.14047,-15.10307 -20.71666,17.47506 -24.12747,-6.90449 -32.4213,6.13732 -13.5717,14.57616 -37.69918,5.37017 -17.34162,24.54931 -58.810714,-8.43882 -44.485032,65.20911 -20.3575617,-12.27465 -0.3504635,21.18148 24.3302442,36.00876 130.166797,46.34912 41.60472,20.07245 73.47734,44.03774 45.74086,-135.76276 z"
   style="fill:#000000;fill-opacity:0"
   inkscape:connector-curvature="0"
   sodipodi:nodetypes="cccccccccccccccccccccccccc"
   inkscape:label="#path7625-7" />
  </a>
  <a xlink:href="/stroomschema/binnenmaas">
    <path
   id="gebiedBinnenmaas"
   style="fill:#000000;fill-opacity:0"
   d="m 567.49989,111.78018 29.20778,61.07082 83.76115,26.31113 14.96597,62.27775 -6.51744,52.62228 12.91419,42.96682 -4.11112,39.1348 -39.83634,-45.35051 14.11735,-20.26139 -0.36585,-11.57147 -71.21659,-10.10806 -1.96127,-24.01797 -41.54867,-3.7415 -20.78942,-20.63855 -16.05221,-1.93109 -18.94884,-17.86261 -20.97046,-0.72416 -3.59063,12.31071 -12.76332,5.55189 -13.24609,-4.58634 -2.77594,17.37983 -22.44896,-2.89663 -11.70725,-29.93195 -51.89812,16.41429 -21.48341,-9.89685 13.63835,-25.2249 2.65525,-45.98414 34.27689,-3.37941 1.20694,-62.76052 -2.65526,0.96555 70.72628,-13.759037 65.89854,23.414497 z"
   inkscape:connector-curvature="0"
   transform="matrix(1.0079368,0,0,1.0079368,0,-6.9914253)"
   sodipodi:nodetypes="ccccccccccccccccccccccccccccccccc" />
  </a>
  <a xlink:href="/stroomschema/klaaswaal">
    <path
   id="gebiedNumansdorp"
   style="fill:#000000;fill-opacity:0"
   d="m 324.56609,253.07529 18.923,-13.09886 21.5523,8.37447 52.26298,-15.79084 11.66342,31.88829 20.07622,1.78266 4.53623,22.38383 -4.02639,22.28279 12.36952,16.32507 25.95732,10.20038 19.67154,20.39469 2.14919,9.15347 -11.01068,-0.67515 -15.03152,8.2503 11.93452,35.53967 22.07338,14.33061 -10.15023,19.29766 28.5057,27.25393 -0.40676,14.48861 -7.64954,0.74408 -108.02628,-44.76765 -57.66269,-4.74439 -64.47514,-29.56125 -23.35703,-11.92182 45.74086,-135.76276 z"
   inkscape:connector-curvature="0"
   sodipodi:nodetypes="cccccccccccccccccccccccccc"
   inkscape:label="#path7625-7" />
  </a>
  <a xlink:href="/stroomschema/strijen">
    <path
   id="gebiedStrijen"
   style="fill:#000000;fill-opacity:0"
   d="m 697.72042,396.16378 -39.83634,-45.35051 14.11735,-20.26139 -0.36585,-11.57147 -71.21659,-10.10806 -1.96127,-24.01797 -41.54867,-3.7415 -20.78942,-20.63855 -16.05221,-1.93109 -18.94884,-17.86261 -20.97046,-0.72416 -3.59063,12.31071 -12.76332,5.55189 -13.24609,-4.58634 -3.90796,17.60905 3.36849,22.43679 -3.99468,22.10733 12.27212,16.19652 25.75292,10.12006 19.51664,20.2341 2.13227,9.08139 -10.92398,-0.66983 -14.91316,8.18533 11.84054,35.25982 21.89957,14.21777 -10.0703,19.1457 28.28124,27.03933 -0.40356,14.37452 162.34686,-60.57397 z"
   inkscape:connector-curvature="0"
   transform="matrix(1.0079368,0,0,1.0079368,0,-6.9914253)"
   sodipodi:nodetypes="cccccccccccccccccccccccccccc" />
  </a>
  <path
     style="stroke-width:0.8;marker-start:url(#RWZI-Marker)"
     id="circle-rwzi-strijen"
     d="m 588,361 5,5"/>
  <a xlink:href="/stroomschema_rwzi/strijen">
    <circle
		  cx="588"
		  cy="361"
		  r="10"
		  style="fill:#000000;fill-opacity:0"
		  id="circle-rwzi-strijen-xlink" />
  </a>
  <path
     style="stroke-width:0.8;marker-start:url(#RWZI-Marker)"
     id="circle-rwzi-klaaswaal"
     d="m 337,410 5,5"/>
  <a xlink:href="/stroomschema_rwzi/klaaswaal">
    <circle
		  cx="337"
		  cy="410"
		  r="10"
		  style="fill:#000000;fill-opacity:0"
		  id="circle-rwzi-klaaswaal-xlink" />
  </a>
  <path
     style="stroke-width:0.8;marker-start:url(#RWZI-Marker)"
     id="circle-rwzi-oudbeijerland"
     d="m 365,105 5,5"/>
  <a xlink:href="/stroomschema_rwzi/oudbeijerland">
    <circle
		  cx="365"
		  cy="105"
		  r="10"
		  style="fill:#000000;fill-opacity:0"
		  id="circle-rwzi-oudbeijerland-xlink" />
  </a>
  <path
     style="stroke-width:0.8;marker-start:url(#RWZI-Marker)"
     id="circle-rwzi-binnenmaas"
     d="m 629,142 5,5"/>
  <a xlink:href="/stroomschema_rwzi/binnenmaas">
    <circle
		  cx="629"
		  cy="142"
		  r="10"
		  style="fill:#000000;fill-opacity:0"
		  id="circle-rwzi-binnenmaas-xlink" />
  </a>
  <path
     style="stroke-width:0.8;marker-start:url(#RWZI-Marker)"
     id="circle-rwzi-piershil"
     d="m 226,215 5,5"/>
  <a xlink:href="/stroomschema_rwzi/piershil">
	 <circle
		  cx="226"
		  cy="215"
		  r="10"
		  style="fill:#000000;fill-opacity:0"
		  id="circle-rwzi-piershil-xlink" />
  </a>

</svg>
